<svg width="57" height="57" viewBox="0 0 57 57" fill="none" xmlns="http://www.w3.org/2000/svg">
<path d="M56.8535 28.5703C56.8535 44.0343 44.3175 56.5703 28.8535 56.5703C13.3895 56.5703 0.853516 44.0343 0.853516 28.5703C0.853516 13.1063 13.3895 0.570313 28.8535 0.570313C44.3175 0.570313 56.8535 13.1063 56.8535 28.5703Z" fill="url(#paint0_linear_40005212_6431)"/>
<path d="M40.9916 19.9602C40.3439 19.4438 39.4001 19.5502 38.8836 20.1979L25.7999 36.6067C25.6139 36.84 25.2663 36.8595 25.0554 36.6486L18.7184 30.3116C18.1326 29.7258 17.1829 29.7258 16.5971 30.3116C16.0113 30.8974 16.0113 31.8471 16.5971 32.4329L22.9341 38.7699C24.4107 40.2465 26.8436 40.1098 28.1455 38.477L41.2293 22.0682C41.7457 21.4205 41.6393 20.4767 40.9916 19.9602Z" fill="white"/>
<defs>
<linearGradient id="paint0_linear_40005212_6431" x1="28.8535" y1="56.5703" x2="28.8535" y2="0.570311" gradientUnits="userSpaceOnUse">
<stop stop-color="#7DBA6E"/>
<stop offset="0.9531" stop-color="#C6E99A"/>
</linearGradient>
</defs>
</svg>
