<svg width="57" height="56" viewBox="0 0 57 56" fill="none" xmlns="http://www.w3.org/2000/svg">
<path d="M56.8611 28C56.8611 43.464 44.3251 56 28.8611 56C13.3971 56 0.861084 43.464 0.861084 28C0.861084 12.536 13.3971 0 28.8611 0C44.3251 0 56.8611 12.536 56.8611 28Z" fill="url(#paint0_linear_40005212_3956)"/>
<path d="M26.1878 34.0455V33.9006C26.2039 32.3632 26.3649 31.1397 26.6707 30.2301C26.9766 29.3205 27.4113 28.584 27.9747 28.0206C28.5382 27.4571 29.2143 26.938 30.0031 26.4631C30.478 26.1733 30.9046 25.8312 31.283 25.4368C31.6613 25.0343 31.9591 24.5715 32.1764 24.0483C32.4018 23.5251 32.5145 22.9455 32.5145 22.3097C32.5145 21.5208 32.3294 20.8366 31.9591 20.2571C31.5888 19.6776 31.0938 19.2308 30.474 18.9169C29.8542 18.603 29.166 18.446 28.4094 18.446C27.7493 18.446 27.1135 18.5829 26.5017 18.8565C25.89 19.1302 25.3788 19.5608 24.9683 20.1484C24.5578 20.736 24.3204 21.5047 24.256 22.4545H21.2134C21.2778 21.0862 21.6319 19.915 22.2759 18.9411C22.9278 17.9671 23.7851 17.2225 24.8476 16.7074C25.9181 16.1922 27.1054 15.9347 28.4094 15.9347C29.826 15.9347 31.0576 16.2164 32.104 16.7798C33.1584 17.3433 33.9714 18.116 34.5429 19.098C35.1224 20.08 35.4122 21.1989 35.4122 22.4545C35.4122 23.34 35.2754 24.1409 35.0017 24.8572C34.7361 25.5736 34.3497 26.2135 33.8426 26.777C33.3436 27.3404 32.7399 27.8395 32.0315 28.2741C31.3232 28.7169 30.7557 29.1837 30.3291 29.6747C29.9025 30.1577 29.5926 30.7332 29.3994 31.4013C29.2063 32.0694 29.1016 32.9025 29.0855 33.9006V34.0455H26.1878ZM27.7332 41.1932C27.1376 41.1932 26.6265 40.9799 26.1999 40.5533C25.7733 40.1267 25.5599 39.6155 25.5599 39.0199C25.5599 38.4242 25.7733 37.9131 26.1999 37.4865C26.6265 37.0599 27.1376 36.8466 27.7332 36.8466C28.3289 36.8466 28.84 37.0599 29.2666 37.4865C29.6932 37.9131 29.9065 38.4242 29.9065 39.0199C29.9065 39.4143 29.8059 39.7765 29.6047 40.1065C29.4115 40.4366 29.1499 40.7022 28.8199 40.9034C28.4979 41.0966 28.1357 41.1932 27.7332 41.1932Z" fill="white"/>
<defs>
<linearGradient id="paint0_linear_40005212_3956" x1="28.8611" y1="0" x2="28.8611" y2="56" gradientUnits="userSpaceOnUse">
<stop stop-color="#FF9D9F"/>
<stop offset="1" stop-color="#E63033"/>
</linearGradient>
</defs>
</svg>
