<svg width="38" height="30" viewBox="0 0 38 30" fill="none" xmlns="http://www.w3.org/2000/svg">
<path d="M36.6202 11.7038H34.9552L30.6724 1.59851C30.4786 1.1413 30.1625 0.752861 29.7625 0.480236C29.3624 0.207611 28.8956 0.062506 28.4185 0.0625H10.2885C9.81143 0.062506 9.34459 0.207611 8.94454 0.480236C8.54449 0.752861 8.22842 1.1413 8.0346 1.59851L3.75185 11.7038H2.08685C1.75975 11.7038 1.44605 11.8401 1.21475 12.0827C0.983456 12.3252 0.853516 12.6542 0.853516 12.9973C0.853516 13.3403 0.983456 13.6693 1.21475 13.9119C1.44605 14.1545 1.75975 14.2908 2.08685 14.2908H3.32018V27.2255C3.32018 27.9116 3.58006 28.5696 4.04265 29.0548C4.50524 29.5399 5.13265 29.8125 5.78685 29.8125H9.48685C10.141 29.8125 10.7685 29.5399 11.231 29.0548C11.6936 28.5696 11.9535 27.9116 11.9535 27.2255V25.9321H26.7535V27.2255C26.7535 27.9116 27.0134 28.5696 27.476 29.0548C27.9386 29.5399 28.566 29.8125 29.2202 29.8125H32.9202C33.5744 29.8125 34.2018 29.5399 34.6644 29.0548C35.127 28.5696 35.3868 27.9116 35.3868 27.2255V14.2908H36.6202C36.9473 14.2908 37.261 14.1545 37.4923 13.9119C37.7236 13.6693 37.8535 13.3403 37.8535 12.9973C37.8535 12.6542 37.7236 12.3252 37.4923 12.0827C37.261 11.8401 36.9473 11.7038 36.6202 11.7038ZM11.9535 19.4647H8.25352C7.92642 19.4647 7.61271 19.3284 7.38142 19.0858C7.15012 18.8433 7.02018 18.5142 7.02018 18.1712C7.02018 17.8281 7.15012 17.4991 7.38142 17.2566C7.61271 17.014 7.92642 16.8777 8.25352 16.8777H11.9535C12.2806 16.8777 12.5943 17.014 12.8256 17.2566C13.0569 17.4991 13.1868 17.8281 13.1868 18.1712C13.1868 18.5142 13.0569 18.8433 12.8256 19.0858C12.5943 19.3284 12.2806 19.4647 11.9535 19.4647ZM30.4535 19.4647H26.7535C26.4264 19.4647 26.1127 19.3284 25.8814 19.0858C25.6501 18.8433 25.5202 18.5142 25.5202 18.1712C25.5202 17.8281 25.6501 17.4991 25.8814 17.2566C26.1127 17.014 26.4264 16.8777 26.7535 16.8777H30.4535C30.7806 16.8777 31.0943 17.014 31.3256 17.2566C31.5569 17.4991 31.6868 17.8281 31.6868 18.1712C31.6868 18.5142 31.5569 18.8433 31.3256 19.0858C31.0943 19.3284 30.7806 19.4647 30.4535 19.4647ZM6.45131 11.7038L10.2885 2.64946H28.4185L32.2557 11.7038H6.45131Z" fill="#DB0019"/>
</svg>
